<svg xmlns="http://www.w3.org/2000/svg" xmlns:xlink="http://www.w3.org/1999/xlink" viewBox="0 0 373.93 150.7"><defs><style>.cls-1{isolation:isolate;}.cls-2{opacity:0.3;mix-blend-mode:multiply;fill:url(#Degradado_sin_nombre_24);}.cls-3,.cls-5{fill:#003159;}.cls-4,.cls-6{fill:#048ed6;}.cls-5{font-size:78.46px;font-family:Bauhaus93, "Bauhaus 93";letter-spacing:0em;}.cls-6{letter-spacing:0em;}</style><radialGradient id="Degradado_sin_nombre_24" cx="168.97" cy="357.48" r="57.08" gradientTransform="translate(-79.27 111.54) scale(1 0.09)" gradientUnits="userSpaceOnUse"><stop offset="0" stop-color="#606060"/><stop offset="1" stop-color="#eaedee" stop-opacity="0"/></radialGradient></defs><title>BshopLogo</title><g class="cls-1"><g id="TEXTS"><ellipse class="cls-2" cx="89.71" cy="143.6" rx="80.63" ry="7.1"/><path class="cls-3" d="M156,282.93a9.51,9.51,0,0,0-9.06-6.68c-.3,0-.61,0-.91,0a9.39,9.39,0,0,0-2.26.5,9.36,9.36,0,0,0-4.58,3.46,9.4,9.4,0,0,0-1.72,6.4,9.5,9.5,0,0,0,9.45,8.6c.3,0,.6,0,.91,0a9.51,9.51,0,0,0,8.59-9.68c0-.23,0-.45,0-.68A9.9,9.9,0,0,0,156,282.93Z" transform="translate(-79.27 -168.96)"/><path class="cls-3" d="M206.45,273.29a9.62,9.62,0,0,0-2.33-1.4,9.39,9.39,0,0,0-3.35-.73l-.31,0c-.31,0-.61,0-.92.05a9.51,9.51,0,0,0-8.47,8,10,10,0,0,0-.09,2.39c0,.1,0,.2.05.3a9.49,9.49,0,0,0,9.4,8.3c.3,0,.61,0,.92,0a9.5,9.5,0,0,0,5.1-16.82Z" transform="translate(-79.27 -168.96)"/><path class="cls-3" d="M121,224.61l-1.65-17.35a16.31,16.31,0,0,0-16.2-14.74c-.51,0-1,0-1.55.08l-15.54,1.48a7.5,7.5,0,0,0,.7,15c.24,0,.48,0,.72,0L103,207.53h.12a1.27,1.27,0,0,1,1.27,1.15L106.07,226a61.05,61.05,0,0,0,1.63,9.38,8,8,0,0,1,3.34-2l10.8-3.34A45.83,45.83,0,0,1,121,224.61Z" transform="translate(-79.27 -168.96)"/><path class="cls-3" d="M227.82,214.43l-.85-9a7.51,7.51,0,0,0-7.46-6.79,5.79,5.79,0,0,0-.72,0,7.5,7.5,0,0,0-6.76,8.17l.86,9c.12,1.29.18,2.57.19,3.84a46.16,46.16,0,0,1-41.76,46.49q-2.22.21-4.41.21a45.69,45.69,0,0,1-16.61-3.12,46.32,46.32,0,0,1-13.46-8.1l-1.27,3.65a7.92,7.92,0,0,1-14.86.27L118,252.17l-4.56-2.31a61.54,61.54,0,0,0,24.73,24.31,14.41,14.41,0,0,1,7.34-2.86c.46,0,.93-.07,1.39-.07h0a14.42,14.42,0,0,1,13.7,9.82,62.12,62.12,0,0,0,6.28.33q2.9,0,5.85-.28a61,61,0,0,0,13.4-2.83,14.45,14.45,0,0,1,12.92-12.07c.46,0,.93-.07,1.39-.07h0a14.43,14.43,0,0,1,5.55,1.11A61.14,61.14,0,0,0,227.82,214.43Z" transform="translate(-79.27 -168.96)"/><path class="cls-4" d="M207.76,214.67a30.13,30.13,0,0,0-9.34-4.11c8-5,11.58-12.41,10.77-20.88-1.32-13.82-14-22.73-39.15-20.34l-32.34,3.09a16.47,16.47,0,0,0-14.84,18l3.48,36.47c.09.57.2,1.13.31,1.7l6.83-2.11a7.92,7.92,0,0,1,9.82,10.17l-4.68,13.43c.25.23.48.46.73.68a41.06,41.06,0,0,0,27.56,10.66c1.31,0,2.63-.07,3.94-.19a41.19,41.19,0,0,0,37.06-44.87Zm-54.18-22.06,14.34-1.37c6.9-.65,10.25,1.39,10.68,5.82s-2.49,7.08-9.39,7.74l-14.34,1.36Zm23.1,46.45-18.5,1.76-1.37-14.33,18.5-1.76c6.78-.65,10.4,1.5,10.85,6.2S183.46,238.42,176.68,239.06Z" transform="translate(-79.27 -168.96)"/><path class="cls-4" d="M135.84,230.61a3.29,3.29,0,0,0-1,.16l-22.44,6.93a3.4,3.4,0,0,0-.54,6.28l8.61,4.35a3.46,3.46,0,0,1,1.63,1.8l2.85,7.32a3.4,3.4,0,0,0,6.37-.12l7.73-22.2A3.41,3.41,0,0,0,135.84,230.61Z" transform="translate(-79.27 -168.96)"/><text class="cls-5" transform="translate(164.72 92.43)">B<tspan class="cls-6" x="44.94" y="0">Shop</tspan></text></g></g></svg>