<svg id="Layer_1" data-name="Layer 1" xmlns="http://www.w3.org/2000/svg" viewBox="0 0 517.16 489.41"><defs><style>.cls-1{fill:#e5e6e6;stroke-width:5px;}.cls-1,.cls-2{stroke:#e5e6e6;stroke-miterlimit:10;}.cls-2{fill:#258bcc;stroke-width:1px;}</style></defs><title>BLogo</title><path class="cls-1" d="M282.56,592.74A37.49,37.49,0,0,0,277.65,582c-6-9-15.6-14.73-26.21-14.72a28.74,28.74,0,0,0-10.86,2.09,31.83,31.83,0,0,0-9.55,5.85,35.77,35.77,0,0,0-6.2,7.3,39,39,0,0,0-5.91,24.41c1.61,18.75,15.82,32.79,32.45,32.79a30.1,30.1,0,0,0,3.13-.16c17.16-1.82,29.9-18.07,29.5-36.89,0-.87,0-1.73-.11-2.61A39.49,39.49,0,0,0,282.56,592.74Z" transform="translate(-16.11 -153.31)"/><path class="cls-1" d="M455.89,556a32.3,32.3,0,0,0-8-5.34,29.74,29.74,0,0,0-11.5-2.79c-.37,0-.73-.06-1.1-.06a30.14,30.14,0,0,0-3.13.17c-10.93,1.15-20.06,8.18-25.16,18a38.8,38.8,0,0,0-3.94,12.4,39.42,39.42,0,0,0-.29,9.11c0,.39.1.77.15,1.16,2.08,18.16,16,31.63,32.3,31.63a30.14,30.14,0,0,0,3.13-.17c17.94-1.89,31.1-19.58,29.39-39.49A37.36,37.36,0,0,0,455.89,556Z" transform="translate(-16.11 -153.31)"/><path class="cls-1" d="M162.43,370.44l-5.68-66.13c-2.75-32.07-27.15-56.17-55.61-56.17a50.69,50.69,0,0,0-5.34.28l-53.38,5.65c-14.16,1.5-24.55,15.45-23.2,31.17,1.27,14.8,12.49,25.88,25.62,25.88a23,23,0,0,0,2.47-.13l53.38-5.64.41,0a4.58,4.58,0,0,1,4.36,4.41l5.68,66.14a256.35,256.35,0,0,0,5.63,35.76,26.87,26.87,0,0,1,11.46-7.77l37.1-12.71A193.65,193.65,0,0,1,162.43,370.44Z" transform="translate(-16.11 -153.31)"/><path class="cls-1" d="M529.31,331.65l-2.94-34.27c-1.27-14.8-12.49-25.88-25.62-25.88a23,23,0,0,0-2.47.13c-14.16,1.5-24.55,15.45-23.2,31.17L478,337.07c.42,4.91.61,9.77.66,14.61.68,60.52-26.74,115.44-69.71,147.8a148,148,0,0,1-73.71,29.41,143.07,143.07,0,0,1-72.19-11.08,157,157,0,0,1-46.23-30.87l-4.36,13.9c-3.86,12.31-13.95,20.27-25.7,20.27-11.3,0-21.25-7.56-25.34-19.25l-9.25-26.36-15.67-8.8c19.77,39.43,49.46,71.57,85,92.65a46.74,46.74,0,0,1,25.2-10.89,44.69,44.69,0,0,1,4.77-.25h0c21.81,0,40.35,15.4,47.06,37.39a187,187,0,0,0,41.64.21,191.75,191.75,0,0,0,46-10.78,57.92,57.92,0,0,1,10.7-26.19c8.48-11.39,20.44-18.43,33.68-19.83a47.43,47.43,0,0,1,4.76-.25h0A45.59,45.59,0,0,1,454.4,533C505.92,485.31,536.14,411.18,529.31,331.65Z" transform="translate(-16.11 -153.31)"/><path class="cls-2" d="M460.38,332.55a98.58,98.58,0,0,0-32.05-15.66c27.28-18.93,39.75-47.31,37-79.6-4.52-52.65-48.08-86.63-134.45-77.5L219.79,171.53c-31.1,3.29-53.92,33.95-50.95,68.47l11.93,139q.48,3.24,1.08,6.45l23.45-8a24.76,24.76,0,0,1,8.09-1.36c8.74,0,17,4.76,22.13,12.75a32.55,32.55,0,0,1,3.5,27.38L223,467.41c.83.87,1.65,1.76,2.49,2.61,26.11,26.19,59.72,40.61,94.65,40.61a127.76,127.76,0,0,0,13.53-.72c37.52-4,71.43-24,95.51-56.31s35.36-73.08,31.79-114.72Zm-186-84.08,49.23-5.21c23.72-2.51,35.23,5.3,36.68,22.19s-8.53,27-32.24,29.47l-49.23,5.2Zm79.33,177.06-63.55,6.72-4.69-54.64L349,370.89c23.27-2.46,35.72,5.75,37.25,23.63S376.93,423.07,353.66,425.53Z" transform="translate(-16.11 -153.31)"/><path class="cls-2" d="M213.39,393.33a10.75,10.75,0,0,0-3.51.6l-77.07,26.41c-10,3.43-11.19,18.66-1.82,23.92l29.54,16.6a12.6,12.6,0,0,1,5.61,6.86l9.77,27.89c1.94,5.52,6.41,8.25,10.87,8.25s9.22-2.91,11-8.69l26.53-84.61C227.08,401.83,221,393.33,213.39,393.33Z" transform="translate(-16.11 -153.31)"/></svg>